<svg width="1024" height="1024" viewBox="0 0 1024 1024" fill="none" xmlns="http://www.w3.org/2000/svg">
<g clip-path="url(#clip0_102_49)">
<path d="M504.118 181.999H696.909L794.003 287.411H418.2L504.118 181.999Z" fill="#D12625"/>
<path d="M284.783 287.411H796.797L814.959 399.107H240.776L284.783 287.411Z" fill="#DA6241"/>
<path d="M132.506 399.107H888.303L953.265 510.802H80.117L132.506 399.107Z" fill="#F1CB29"/>
<path d="M80.117 510.802H953.265V622.497H80.117V510.802Z" fill="#4BB249"/>
<path d="M99.6756 622.497H937.898L773.746 720.23L716.467 792.832L582.352 706.967H164.638L99.6756 622.497Z" fill="#009EDA"/>
<path d="M596.313 145.01C508.771 145.01 432.683 189.377 385.128 255.604C372.2 252.108 358.921 249.716 344.856 249.716C275.782 249.716 219.051 295.76 198.169 358.015C109.262 373.131 41 449.933 41 542.879C41 646.594 125.812 731.345 229.6 731.345H593.697L731.216 868.767H731.222C737.114 874.677 745.124 878 753.476 878C761.827 878 769.832 874.683 775.735 868.778C781.633 862.874 784.937 854.864 784.921 846.519V731.346H795.4C899.189 731.346 984 646.594 984 542.88C984 459.454 929.354 388.843 853.684 364.223C833.029 240.294 725.94 145 596.33 145L596.313 145.01ZM596.313 207.833C701.32 207.833 786.729 288.401 794.729 391.062V391.056C795.243 397.902 797.989 404.391 802.538 409.533C807.093 414.674 813.208 418.181 819.945 419.523C877.537 430.916 921.119 481.529 921.119 542.873C921.119 612.635 865.201 668.519 795.384 668.519H753.472H753.477C745.142 668.519 737.143 671.831 731.251 677.72C725.358 683.608 722.044 691.602 722.044 699.93V770.606L629.054 677.682C623.146 671.794 615.136 668.498 606.789 668.52H229.59C159.779 668.52 103.855 612.641 103.855 542.874C103.855 475.44 156.259 421.131 222.712 417.559H222.717C229.877 417.213 236.707 414.426 242.068 409.663C247.43 404.9 250.999 398.455 252.185 391.387C259.626 346.717 297.808 312.534 344.844 312.534C358.639 312.534 371.512 315.652 383.481 321.042V321.037C390.581 324.17 398.59 324.565 405.968 322.146C413.344 319.732 419.562 314.678 423.429 307.951C457.755 248.165 522.106 207.828 596.306 207.828L596.313 207.833Z" fill="black"/>
</g>
<defs>
<clipPath id="clip0_102_49">
<rect width="1024" height="1024" fill="white"/>
</clipPath>
</defs>
</svg>
